<?xml version="1.0" encoding="UTF-8"?>
<!-- Generator: Adobe Illustrator 16.0.0, SVG Export Plug-In . SVG Version: 6.00 Build 0)  -->
<!DOCTYPE svg PUBLIC "-//W3C//DTD SVG 1.1//EN" "http://www.w3.org/Graphics/SVG/1.1/DTD/svg11.dtd">
<svg version="1.1" id="Layer_1" xmlns="http://www.w3.org/2000/svg" xmlns:xlink="http://www.w3.org/1999/xlink" x="0px" y="0px" width="500px" height="500px" viewBox="0 0 500 500" enable-background="new 0 0 500 500" xml:space="preserve">
<g>
	<path fill="#73BF44" d="M308.754,213.385c-20.492,32.787-57.775,56.026-92.202,69.959c-32.787,13.115-64.355,14.467-98.782,14.467   l1.571-2.172c1.639,30.328-11.476,59.836-9.017,90.164c1.64,18.032,11.476,37.705,28.688,44.262   c16.394,6.558,35.246,6.558,53.279,6.558c10.656,0,82.774-23.091,92.61-29.648c14.262-4.559,97.022-56.471,91.816-53.139   c28.688-11.476,51.64-64.754,32.787-91.803c-14.754-19.673-42.623-27.049-64.754-35.246c-12.296-4.918-25.41-4.918-36.886-10.656"/>
	<g>
		<path d="M306.596,212.124c-18.178,28.659-47.222,48.649-77.429,62.992c-17.003,8.074-34.769,13.689-53.343,16.747    c-19.15,3.151-38.691,3.435-58.053,3.449c0.72,1.254,1.439,2.508,2.159,3.762c0.524-0.724,1.047-1.448,1.571-2.172    c-1.553-0.421-3.106-0.841-4.659-1.262c1.355,30.465-11.182,59.654-9.017,90.164c0.786,11.066,4.816,22.112,11.144,31.189    c6.833,9.803,16.458,15.104,27.767,18.246c14.135,3.926,29.204,3.87,43.751,3.884c5.251,0.005,10.341-1.309,15.409-2.584    c17.107-4.304,33.974-9.77,50.647-15.506c21.911-7.539,41.771-17.302,61.791-28.949c20.155-11.727,39.62-24.721,59.879-36.241    c-1.141-0.3-2.28-0.599-3.421-0.897l0.001,0.001c0.299-1.14,0.598-2.28,0.896-3.42c-0.076,0.052-0.154,0.101-0.232,0.151    c-2.271,1.457-0.796,5.704,1.927,4.569c15.21-6.341,25.931-20.259,32.936-34.734c7.389-15.269,11.337-33.775,6.346-50.367    c-5.393-17.923-24.021-28.435-40.146-35.239c-9.775-4.125-19.854-7.435-29.819-11.058c-12.249-4.454-25.771-5.271-37.571-10.876    c-2.896-1.375-5.435,2.935-2.523,4.317c9.745,4.628,20.385,5.885,30.71,8.649c9.552,2.557,19.012,6.529,28.282,9.974    c16.687,6.202,36.97,14.898,44.944,32.055c6.865,14.768,2.692,33.469-3.471,47.691c-6.071,14.012-16.472,28.703-31.017,34.766    c0.643,1.523,1.285,3.047,1.927,4.569c0.078-0.05,0.156-0.099,0.232-0.15c1.05-0.721,1.721-2.246,0.897-3.421l-0.001-0.001    c-0.788-1.125-2.161-1.612-3.42-0.896c-22.545,12.82-44.179,27.28-66.698,40.18c-9.271,5.31-18.739,10.044-28.299,14.722    c-14.096,6.898-29.709,11.37-44.619,16.111c-12.698,4.037-25.53,8.101-38.586,10.832c-7.038,1.473-14.422,0.782-21.557,0.576    c-12.896-0.373-26.296-1.755-38.181-7.119c-20.708-9.347-26.065-35.197-25.032-55.524c1.294-25.477,10.268-49.96,9.125-75.663    c-0.116-2.609-3.222-3.248-4.659-1.262c-0.524,0.724-1.047,1.448-1.571,2.172c-1.144,1.581,0.403,3.763,2.159,3.762    c19.282-0.015,38.541-0.526,57.643-3.356c19.139-2.835,37.35-8.79,54.884-16.87c31.526-14.528,61.78-35.741,80.615-65.438    C312.646,211.916,308.316,209.41,306.596,212.124L306.596,212.124z"/>
	</g>
</g>
<g>
	<g>
		<g>
			<path fill="#73BF44" d="M139.833,438.549c7.239-54.288-18.93-99.885-51.639-104.918c-18.853-3.278-22.131,22.951-22.131,37.705     c0.82,17.213,9.836,35.246,18.033,50.819c4.099,7.377,12.295,20.492,8.197,29.509c-4.098,7.377-16.394,10.655-23.771,12.295     c-5.738,1.639-27.049,1.639-28.688,8.196c-4.918,15.574,27.869,6.558,33.606,5.738c-1.639,7.377-0.819,11.475,8.197,11.475     c9.017,0,13.115-5.737,18.853-11.475C111.965,467.237,139.014,455.762,139.833,438.549"/>
			<g>
				<path d="M142.333,438.549c3.123-24.555,0.107-49.97-11.18-72.191c-8.324-16.387-22.636-31.357-41.274-34.967      C70.22,327.584,64.928,349.316,63.8,364.43c-1.959,26.23,13.783,47.813,24.209,70.485c1.727,3.754,2.911,7.797,2.884,11.944      c-0.029,4.42-3.495,7.122-6.954,9.186c-5.299,3.162-11.907,4.794-17.94,5.904c-7.917,1.458-23.549,0.069-28.129,8.383      c-4.591,8.33,3.911,12.926,10.839,13.358c8.606,0.538,16.987-2.083,25.396-3.386c-1.025-1.025-2.05-2.051-3.075-3.076      c-1.688,8.116,0.208,13.813,9.18,14.602c11.168,0.983,16.74-7.844,24.321-14.137      C117.603,466.843,140.792,458.074,142.333,438.549c0.254-3.217-4.748-3.192-5,0c-1.132,14.343-19.081,23.313-29.49,30.518      c-5.899,4.084-10.535,8.98-15.834,13.746c-3.756,3.378-8.605,4.619-13.56,3.808c-4.237-0.694-3.247-4.948-2.599-8.062      c0.416-2.001-1.16-3.373-3.075-3.076c-6.285,0.975-12.4,2.588-18.766,3.104c-3.274,0.267-6.667,0.316-9.825-0.687      c-3.034-0.963-3.055-4.862-0.577-6.49c6.62-4.351,16.858-3.376,24.412-4.767c8.501-1.565,19.651-4.556,25.121-11.806      c6.476-8.583,0.434-20.562-3.939-28.676c-6.748-12.521-13.485-25.024-17.678-38.688c-3.368-10.976-3.613-22.068-1.352-33.263      c1.702-8.423,5.714-18.557,15.792-18.338c18.389,0.399,33.121,18.271,40.873,33.007c11.132,21.162,13.476,46.248,10.498,69.668      C136.928,441.741,141.933,441.702,142.333,438.549L142.333,438.549z"/>
			</g>
		</g>
	</g>
	<g>
		<g>
			<path fill="#73BF44" d="M234.72,32.677c1.695,1.695,2.966,2.301,3.813,4.843c5.085,8.475,7.627,14.407,9.322,23.729     c3.39,16.949,11.017-2.542,16.102-9.322c16.949-19.492,48.305-33.898,66.949-9.322c8.475,10.169,15.254,22.034,16.102,35.593     c0.848,22.034-4.237,44.916-7.627,66.949c-5.085,35.593-23.097,82.818-52.758,104.853     c-30.509,23.729-63.344,40.063-102.327,47.689c-29.661,5.085-58.475,1.695-88.135-3.39     c-24.577-5.085-54.237-11.864-74.577-27.118c-26.271-19.492,0.848-44.916,15.254-61.018     c-8.475-27.966-38.136-93.22-9.322-112.711c17.796-12.712,70.339-12.712,80.508,11.017l0.729-0.633     c3.67-6.587,14.667-11.539,20.492-16.394l2.508,0.925c-9.322-9.322-1.695-31.356,3.39-40.678     c6.779-11.017,15.254-20.339,25.424-27.966c12.712-8.475,26.271-11.017,40.678-5.932c12.712,4.237,30.509,11.017,37.288,23.729"/>
			<g>
				<path d="M232.952,34.445c4.504,4.245,7.429,10.93,9.639,16.684c2.084,5.424,2.057,11.801,4.979,16.846      c4.297,7.417,11.065-2.656,13.24-6.205c2.373-3.872,4.406-7.643,7.562-10.956c4.174-4.383,8.969-8.119,14.106-11.3      c9.419-5.833,20.892-9.278,31.82-6.15c12.367,3.54,20.967,17.597,26.055,28.521c6.617,14.208,4.344,31.017,2.438,46.046      c-3.363,26.523-7.47,53.661-16.669,78.861c-8.323,22.802-21.07,46.154-40.762,61.05c-22.221,16.809-45.931,30.731-72.409,39.714      c-14.281,4.846-29.029,8.275-44.064,9.554c-15.904,1.352-31.932,0.334-47.746-1.558c-27.824-3.328-57.139-8.904-82.58-21.081      c-10.713-5.127-25.152-12.785-25.494-26.254c-0.286-11.284,9.159-21.91,16.076-29.833c3.051-3.495,7.509-6.959,9.851-10.958      c1.396-2.382-1.772-8.215-2.583-10.588c-3.128-9.149-6.417-18.24-9.368-27.449c-5.871-18.32-12.749-40.034-7.88-59.321      c4.55-18.021,24.455-21.911,40.532-22.537c15.51-0.604,38.83,2.043,46.168,18.2c0.71,1.563,2.822,1.466,3.926,0.506      c1.162-1.009,1.83-2.319,2.833-3.492c1.911-2.234,4.429-3.943,6.829-5.597c3.856-2.658,7.896-5.005,11.559-7.938      c-0.811,0.214-1.622,0.429-2.432,0.643c0.836,0.309,1.672,0.617,2.508,0.925c2.498,0.921,3.998-2.47,2.432-4.178      c-7.758-8.469-2.334-23.994,1.567-33.097c5.389-12.573,16-23.429,26.741-31.621c12.687-9.677,27.993-9.431,42.332-4.459      c11.967,4.149,25.663,9.81,32.213,21.359c1.59,2.804,5.91,0.285,4.317-2.523c-7.05-12.431-21.113-18.568-33.964-23.219      c-7.64-2.765-15.126-4.711-23.313-4.234c-8.697,0.506-16.886,4.086-24.109,8.76c-12.653,8.186-23.995,22.283-29.684,36.153      c-4.426,10.79-8.485,26.756,0.365,36.417c0.811-1.393,1.622-2.786,2.432-4.178c-1.149-0.424-2.571-1.273-3.837-0.925      c-2.622,0.721-5.744,3.943-8.078,5.451c-2.948,1.904-5.832,3.864-8.573,6.057c-2.241,1.792-3.579,4.342-5.673,6.162      c1.309,0.168,2.618,0.337,3.926,0.506c-7.055-15.533-27.117-19.723-42.428-20.604c-15.273-0.879-35.044,1.079-46.282,12.74      c-12.198,12.659-9.319,33.934-6.212,49.485c3.906,19.553,11.277,38.158,17.571,57.009c0.554,1.657,1.083,3.321,1.595,4.992      c0.214-0.811,0.429-1.622,0.643-2.432c-11.926,13.263-33.367,32.456-25.24,52.527c4.311,10.647,16.483,17.054,26.209,21.864      c11.667,5.771,24.245,9.605,36.818,12.823c28.636,7.33,58.761,11.938,88.368,10.948c28.104-0.939,55.667-9.417,80.872-21.573      c12.273-5.92,23.937-13.045,35.077-20.875c9.826-6.906,19.127-14.201,26.89-23.422c15.411-18.308,25.308-41.161,31.915-63.973      c3.439-11.875,5.28-23.962,7.303-36.13c2.509-15.089,5.218-30.158,6.104-45.452c0.823-14.218-1.246-26.709-8.568-39.058      c-5.729-9.662-13.288-19.062-24.029-23.15c-18.935-7.207-40.26,6.073-52.856,19.301c-2.849,2.991-4.785,6.548-6.876,10.08      c-1.097,1.853-2.219,3.717-3.553,5.41c-1.557,1.974-1.68,2.148-2.553-0.372c-1.942-5.599-2.446-11.428-4.902-16.929      c-2.472-5.536-5.126-11.331-9.561-15.509C234.143,28.701,230.601,32.23,232.952,34.445L232.952,34.445z"/>
			</g>
		</g>
		<g>
			<path fill="#73BF44" d="M129.211,89.215"/>
			<g>
				<path d="M129.211,91.715c3.224,0,3.224-5,0-5S125.987,91.715,129.211,91.715L129.211,91.715z"/>
			</g>
		</g>
		<g>
			<path fill="#73BF44" d="M36.838,206.164"/>
			<g>
				<path d="M36.838,208.664c3.224,0,3.224-5,0-5S33.614,208.664,36.838,208.664L36.838,208.664z"/>
			</g>
		</g>
		<g>
			<path fill="#73BF44" d="M36.838,206.164"/>
			<g>
				<path d="M36.838,208.664c3.224,0,3.224-5,0-5S33.614,208.664,36.838,208.664L36.838,208.664z"/>
			</g>
		</g>
	</g>
	<g>
		<g>
			<path fill="#73BF44" d="M344.752,226.787c-9.836-15.574,33.674-44.263,49.248-45.083c15.573-0.82,29.508,20.492,35.246,32.787     c9.836,22.131,8.196,46.721,9.016,70.492c0.82,19.672,4.099,37.705,21.312,48.36c8.197,4.099,18.033,4.099,25.41,9.017     c10.656,7.377,4.099,13.935-4.918,17.213c-6.558,1.64-13.114,1.64-19.672,2.459c0,9.017,20.491,17.214,4.099,23.771     c-12.296,4.918-20.492-5.737-25.41-13.935c-10.656-16.393-29.508-28.012-33.606-46.864"/>
			<g>
				<path d="M346.91,225.525c-3.702-6.358,2.923-13.817,7.031-18.143c6.463-6.803,14.437-12.22,22.62-16.728      c6.662-3.67,14.745-7.807,22.524-5.871c10.95,2.726,18.929,14.777,24.271,23.853c14.978,25.449,10.627,55.507,12.85,83.635      c0.855,10.833,3.145,21.702,9.168,30.906c2.767,4.226,6.431,7.672,10.458,10.671c5.299,3.946,12.165,5.051,18.408,6.719      c5.637,1.505,19.4,7.254,10.633,13.811c-6.735,5.039-16.516,4.24-24.48,5.153c-1.281,0.146-2.596,1.027-2.5,2.5      c0.448,6.883,6.678,10.662,9.935,16.155c2.728,4.602-7.607,6.366-10.229,6.342c-5.455-0.052-9.965-4.858-13.008-8.854      c-2.846-3.737-5.157-7.822-8.077-11.522c-3.38-4.282-7.194-8.221-10.917-12.201c-7.585-8.108-15.065-16.542-17.711-27.613      c-0.75-3.135-5.571-1.805-4.822,1.33c2.969,12.419,11.521,21.827,20.015,30.906c4.928,5.268,9.83,10.537,13.845,16.555      c3.011,4.515,5.87,9.14,10.335,12.406c3.939,2.881,8.708,4.66,13.647,3.806c4.235-0.732,10.16-2.726,11.932-7.126      c3.356-8.331-9.461-12.763-9.944-20.184c-0.833,0.833-1.667,1.667-2.5,2.5c10.392-1.191,25.584-0.161,31.667-10.767      c5.866-10.229-11.271-16.625-18.033-18.432c-6.882-1.837-12.979-3.327-18.511-8.088c-4.76-4.098-8.096-9.555-10.336-15.366      c-4.567-11.85-4.456-25.138-4.669-37.638c-0.247-14.546-0.469-29.104-3.412-43.407c-2.435-11.837-7.484-22.675-14.451-32.493      c-5.754-8.11-13.4-16.18-23.367-18.661c-7.039-1.752-14.316,1.366-20.578,4.281c-10.679,4.972-20.887,12.084-29.006,20.632      c-5.686,5.985-11.915,15.194-7.104,23.455C344.215,230.833,348.536,228.317,346.91,225.525L346.91,225.525z"/>
			</g>
		</g>
	</g>
	<g>
		<path fill="#73BF44" d="M303.768,300.024c7.377,5.737,11.476,27.049,14.755,36.065c4.918,11.476,10.655,22.951,14.754,35.246    c2.459,9.836,4.099,19.672,2.459,30.328c-0.82,6.557-6.558,18.032-4.918,24.59c3.278,12.295,18.032-4.099,19.672-11.476    c0.819-5.737-3.278-21.312,2.459-24.59c6.558-4.099,16.394,18.032,25.41,18.853c15.573,0.819-2.459-22.951-7.377-27.869    c-2.459-2.459-5.738-3.278-7.378-5.738c46.057-7.083,36.954,4.632,40.648-7.316c-5.737-10.656-23.435-8.257-32.451-12.355    c-10.656-4.098-12.295-12.295-16.394-22.131c-6.558-16.394-20.492-29.508-24.59-45.901"/>
		<g>
			<path d="M302,301.792c7.42,6.306,9.402,19.172,11.961,28.073c3.673,12.777,10.339,24.501,15.055,36.914     c5.17,13.607,6.519,28.53,2.168,42.49c-1.864,5.982-7.064,19.948,1.642,23.431c6.751,2.701,13.529-5.756,16.808-10.446     c5.206-7.449,2.637-15.158,2.707-23.646c0.017-1.929,0.087-5.009,1.87-6.261c1.058-0.743,2.89,1.064,3.581,1.659     c3.429,2.949,6.148,6.762,9.17,10.107c4.101,4.539,11.49,10.704,17.713,5.813c5.579-4.384,0.348-13.364-2.327-17.848     c-2.062-3.453-4.498-6.695-7.042-9.807c-2.856-3.495-7.154-5.244-9.934-8.607c-0.367,1.393-0.735,2.785-1.103,4.179     c12.515-1.886,24.563-2.737,37.114-1.545c1.983,0.188,3.376-0.942,4.022-2.747c1.188-3.319,1.862-6.225-0.64-9.108     c-5.103-5.881-13.039-7.17-20.345-8.312c-9.41-1.469-17.569-3.584-22.274-12.684c-2.078-4.021-3.354-8.433-5.196-12.562     c-2.194-4.914-4.881-9.524-7.764-14.062c-6.06-9.542-12.974-18.683-15.958-29.762c-0.838-3.109-5.662-1.788-4.822,1.33     c2.526,9.376,7.665,17.517,12.944,25.56c5.662,8.627,10.403,17.154,14.194,26.765c2.826,7.167,6.475,13.129,13.596,16.618     c6.979,3.418,15.006,3.411,22.441,5.23c3.811,0.933,7.557,2.562,9.919,5.82c0.237-0.604,0.258-0.602,0.061,0.007     c-0.117,0.404-0.223,0.812-0.327,1.219c-0.134,0.519-0.253,1.041-0.374,1.563c-0.305,1.306-0.613,1.079,0.389,0.318     c0.69-0.523,0.313-0.154-0.454-0.261c-12.593-1.753-25.371-0.092-37.856,1.789c-2.048,0.309-2.151,2.909-1.103,4.179     c2.659,3.22,6.683,4.8,9.438,8.017c2.729,3.184,5.128,6.661,7.274,10.258c1.563,2.618,4.001,6.513,3.478,9.729     c-0.719,4.416-8.16-1.246-9.31-2.327c-5.033-4.736-9.603-14-16.867-15.569c-8.606-1.858-8.673,10.934-8.378,16.069     c0.219,3.812,1.442,8.424,0.187,12.125c-1.401,4.13-4.9,7.87-8.158,10.623c-4.561,3.854-6.75,0.923-6.38-4.317     c0.418-5.908,3.255-11.657,4.645-17.374c6.765-27.827-12.045-51.761-19.314-77.052c-2.708-9.42-5.038-22.432-12.915-29.125     C303.094,296.182,299.539,299.701,302,301.792L302,301.792z"/>
		</g>
	</g>
	<g>
		<path fill="#73BF44" d="M195.571,355.762c0,15.574,9.836,32.787,17.213,45.902c6.558,13.114,12.295,25.409,21.312,36.885    c6.558,7.377,6.558,7.377,2.459,15.574c-2.459,4.098-10.656,13.934-3.278,17.213c9.836,4.098,21.312-23.771,27.049-27.869    c4.099,4.099,13.115,25.41,22.951,17.213c8.196-7.377-8.197-25.409-9.836-31.147c5.737-1.639,31.967,3.279,31.967-8.196    c0-10.656-36.065-10.656-44.263-13.935c-10.655-3.278-11.475-9.017-15.573-18.033c-6.558-12.295-16.394-23.771-21.312-36.065"/>
		<g>
			<path d="M193.071,355.762c0.409,19.77,12.288,36.577,20.784,53.653c4.731,9.508,9.68,18.872,15.894,27.51     c1.907,2.65,6.884,6.5,7.125,9.842c0.215,2.975-2.886,6.759-4.472,9.144c-2.645,3.976-6.969,10.7-3.234,15.316     c3.165,3.912,8.077,3.53,11.941,0.981c4.779-3.152,8.152-8.554,11.243-13.234c2.924-4.427,5.493-10.4,9.74-13.739     c-1.179,0-2.356,0-3.535,0c6.139,6.618,13.885,26.713,25.98,17.604c11.587-8.726-5.825-25.412-8.687-33.971     c-0.582,1.025-1.164,2.051-1.746,3.076c9.604-2.307,22.21,3.061,30.646-3.989c3.214-2.686,4.236-7.413,1.689-10.907     c-2.849-3.909-8.378-5.373-12.812-6.499c-11.695-2.972-25.514-1.694-36.332-7.452c-3.251-1.729-5.041-4.836-6.552-8.045     c-2.099-4.455-3.96-8.797-6.53-13.031c-5.916-9.748-13.124-18.789-17.545-29.382c-1.223-2.93-6.063-1.646-4.821,1.33     c3.677,8.809,8.987,16.64,14.217,24.58c2.596,3.94,5.086,7.938,7.347,12.082c1.726,3.163,2.742,6.684,4.495,9.851     c5.62,10.156,18.551,10.801,28.732,12.174c3.195,0.431,31.134,3.686,25.595,10.822c-2.974,3.832-11.034,3.238-15.268,3.269     c-4.623,0.032-9.646-0.715-14.191,0.376c-1.271,0.306-2.168,1.814-1.746,3.076c1.345,4.02,4.119,7.57,6.318,11.147     c2.479,4.031,7.422,11.081,5.3,16.081c-4.625,10.897-17.861-12.823-20.555-15.727c-1.007-1.086-2.498-0.815-3.535,0     c-2.987,2.348-5.005,6.137-7.016,9.282c-3.152,4.929-6.194,9.985-10.144,14.331c-1.527,1.68-3.298,3.281-5.53,3.888     c-4.67,1.268-2.424-5.131-1.495-6.931c2.437-4.726,6.947-9.19,7.434-14.731c0.536-6.089-6.712-11.609-9.806-16.058     c-5.374-7.727-9.633-16.188-13.828-24.59c-8.087-16.196-19.713-32.37-20.101-51.129     C198.005,352.542,193.004,352.535,193.071,355.762L193.071,355.762z"/>
		</g>
	</g>
</g>
<ellipse transform="matrix(0.9397 -0.342 0.342 0.9397 -15.4814 71.265)" fill="#FFFFFF" stroke="#000000" stroke-width="4" stroke-miterlimit="10" cx="194.341" cy="79.532" rx="33.418" ry="44.197"/>
<g>
	<g>
		<path d="M80.152,249.156c28.657,6.843,60.165,14.622,89.644,9.212c24.712-4.534,50.117-16.275,69.843-31.775    c9.609-7.55,17.733-16.79,24.484-26.947c8.15-12.26,16.035-24.621,22.844-37.689c6.665-12.792,11.299-26.061,16.134-39.593    c2.157-6.039,4.389-11.885,5.341-18.265c1.104-7.401,0.102-14.924,1.485-22.361c0.117-0.514,0.233-1.028,0.351-1.542    c0.713-3.14-4.107-4.473-4.822-1.329c-1.313,5.787-1.615,11.67-1.708,17.588c-0.113,7.228-1.418,13.488-3.877,20.269    c-4.865,13.414-9.272,26.736-15.624,39.567c-5.997,12.114-13.077,23.67-20.502,34.952c-7.049,10.711-14.562,20.576-24.271,29.029    c-18.708,16.286-43.75,27.044-67.722,32.592c-14.634,3.386-29.25,2.313-44.004,0.435c-15.587-1.985-30.993-5.318-46.265-8.964    C78.347,243.586,77.017,248.407,80.152,249.156L80.152,249.156z"/>
	</g>
</g>
<g>
	<g>
		<path d="M344.752,229.287c20.978,1.681,41.015,14.449,54.581,30.037c15.91,18.28,17.331,44.28,3.983,64.418    c-1.787,2.696,2.546,5.197,4.318,2.523c13.635-20.572,13.097-47.529-2.07-67.131c-14.289-18.466-37.245-32.959-60.813-34.848    C341.536,224.029,341.561,229.031,344.752,229.287L344.752,229.287z"/>
	</g>
</g>
<ellipse transform="matrix(0.903 -0.4296 0.4296 0.903 -58.5981 44.9486)" fill="#FFFFFF" stroke="#000000" stroke-width="4" stroke-miterlimit="10" cx="70.256" cy="152.262" rx="33.418" ry="44.197"/>
<g>
	<g>
		<path d="M75.926,238.262c0.646,5.794-0.973,12.728-5.005,17.084c-2.187,2.361,1.341,5.906,3.535,3.535    c4.889-5.28,7.262-13.512,6.47-20.62C80.573,235.095,75.569,235.06,75.926,238.262L75.926,238.262z"/>
	</g>
</g>
<g>
	<g>
		<path d="M295.119,73.95c5.387,7.642,12.896,9.389,21.832,9.435c3.225,0.017,3.224-4.984,0-5    c-6.964-0.035-13.231-0.882-17.514-6.958C297.596,68.814,293.257,71.308,295.119,73.95L295.119,73.95z"/>
	</g>
</g>
<ellipse transform="matrix(0.903 -0.4296 0.4296 0.903 -64.208 52.8228)" stroke="#000000" stroke-width="4" stroke-miterlimit="10" cx="84.893" cy="168.625" rx="17.637" ry="22.602"/>
<ellipse transform="matrix(0.903 -0.4296 0.4296 0.903 -24.0602 96.0336)" stroke="#000000" stroke-width="4" stroke-miterlimit="10" cx="200.68" cy="101.309" rx="17.637" ry="22.603"/>
</svg>